<?xml version="1.0" encoding="utf-8" ?>
<svg xmlns="http://www.w3.org/2000/svg" xmlns:xlink="http://www.w3.org/1999/xlink" width="2000" height="1000">
	<path fill="purple" d="M1306.35 428.22C1309.7 428.043 1312.82 428.089 1315.87 429.677Q1316.34 429.918 1316.79 430.208Q1317.24 430.497 1317.65 430.831Q1318.06 431.166 1318.44 431.541Q1318.82 431.917 1319.15 432.33Q1319.49 432.742 1319.78 433.188Q1320.07 433.633 1320.31 434.107Q1320.56 434.58 1320.75 435.076Q1320.94 435.573 1321.08 436.086C1323.77 446.372 1322.02 475.179 1322.02 487.129C1322.03 513.209 1323.33 540.068 1321.63 566.069C1321.49 568.222 1321.24 570.697 1320.01 572.546C1317.84 575.812 1314.79 576.908 1311.12 577.639C1309.75 577.89 1308.54 577.984 1307.16 577.709C1304.16 577.109 1301.35 575.123 1299.71 572.551C1298.44 570.558 1298.31 567.663 1298.18 565.382C1297.31 550.166 1296.45 442.997 1298.66 435.761C1299.88 431.789 1302.94 430.012 1306.35 428.22Z"/>
	<path fill="purple" fill-opacity="0.98823529" d="M638.17 544.506L556.166 617.879C546.302 626.657 533.221 640.592 522.318 647.309C519.379 647.526 518.777 647.433 516.121 646.166C514.59 643.97 514.39 643.672 514.344 641.015C516.173 637.373 519.868 634.11 522.847 631.369C577.112 581.433 633.024 533.048 688.08 483.966L734.907 442.408C742.348 435.672 749.446 427.296 757.843 421.805C760.813 419.864 763.274 418.744 766.905 419.486C769.571 421.018 770.525 422.213 771.937 424.852C751.736 443.821 730.752 462.036 709.986 480.384C701.737 487.932 692.964 495.156 684.976 502.958Q661.434 523.575 638.17 544.506Z"/>
	<path fill="purple" fill-opacity="0.98823529" d="M642.711 465.056L719.882 396.028C732.95 384.406 745.946 371.365 759.807 360.781C761.652 359.371 763.276 358.58 765.625 358.299C768.057 359.071 769.512 359.647 770.882 361.961C771.549 363.087 771.489 364.218 770.981 365.364C769.982 367.617 768.191 369.257 766.424 370.917C745.916 390.186 527.558 585.491 523.133 586.755C521.005 587.362 519.128 586.686 517.164 585.858C515.285 584.167 514.35 582.994 513.961 580.439C513.952 580.378 513.957 580.316 513.954 580.255Q544.2 552.705 574.95 525.718C581.901 519.279 588.844 512.763 596.193 506.78C611.02 492.336 627.253 478.86 642.711 465.056Z"/>
	<path fill="purple" d="M1203.24 483.795C1212.13 478.779 1230.87 443.136 1242.16 433.468C1244.9 431.124 1248.68 428.971 1252.43 429.539C1255.32 429.977 1258.28 431.986 1259.92 434.371C1261.7 436.967 1262.27 440.296 1261.62 443.361C1260.51 448.625 1223.7 499.603 1217.69 503.436C1223.14 506.816 1259.25 556.609 1261.26 562.934C1262.17 565.815 1262.19 569.421 1260.63 572.072C1258.63 575.465 1255.77 576.521 1252.15 577.352C1251.61 577.663 1250.89 577.866 1250.28 577.955C1238.93 579.591 1214.28 531.317 1203.29 523.814C1203.25 524.109 1203.25 524.409 1203.19 524.699C1202.14 529.863 1170.19 571.637 1164.98 575.096C1162.15 576.977 1158.44 578.241 1155.04 577.374C1152.36 576.69 1149.59 574.421 1148.41 571.868C1141.36 556.651 1184.49 519.266 1188.58 503.985C1188.63 503.811 1188.66 503.634 1188.7 503.459C1187.05 490.716 1146.38 455.211 1147.72 439.548C1148.09 435.161 1150.63 432.934 1153.75 430.171C1155.38 429.893 1157.04 429.6 1158.7 429.514C1161.31 429.379 1163.94 430.063 1165.88 431.867C1171.25 436.868 1203.05 479.062 1203.24 483.795Z"/>
	<path fill="purple" d="M1033.08 428.215Q1034.07 428.113 1035.06 428.039C1047.19 427.128 1059.9 427.83 1072.09 427.802C1083.16 427.777 1095.26 426.757 1106.22 428.23C1109.18 428.629 1111.87 429.304 1114.15 431.364C1116.78 433.745 1118.12 437.276 1118.17 440.781C1118.21 443.127 1117.36 445.114 1115.73 446.796C1107.45 455.309 1059.97 451.934 1046.39 451.971C1046.83 452.666 1047.24 453.394 1047.49 454.186C1049.31 460.028 1049.13 486.559 1046.36 491.115C1057.52 491.133 1068.7 491.254 1079.87 491.071C1085.55 490.977 1091.87 489.997 1097.47 490.853C1100.32 491.289 1103.18 492.508 1105.37 494.402C1107.94 496.625 1109.8 499.939 1110 503.364C1110.14 505.942 1109.35 508.504 1107.55 510.387C1100.49 517.758 1057.29 514.739 1046.28 514.74C1046.84 515.637 1047.23 516.433 1047.52 517.458C1048.63 521.444 1048.19 525.183 1046.25 528.809C1046.66 529.411 1046.99 530.004 1047.27 530.675C1049.28 535.4 1048.69 549.606 1046.61 554.269C1060.99 554.22 1095.69 552.449 1107.87 554.526C1111.44 555.133 1114.12 556.982 1116.12 559.971C1117.8 562.489 1119.24 565.729 1118.43 568.806C1117.76 571.391 1115.57 573.435 1113.34 574.755C1104.01 580.259 1044.23 579.769 1032.27 576.315C1029.98 575.653 1027.2 574.889 1026.05 572.643C1024.47 569.565 1024.24 564.983 1024.1 561.586C1023.67 551.299 1023.54 439.157 1025.26 434.942C1026.73 431.335 1029.71 429.722 1033.08 428.215Z"/>
	<path fill="purple" d="M880.649 429.679C882.981 429.399 885.266 429.266 887.598 429.629C890.225 430.038 891.898 431.289 893.673 433.167C902.637 442.656 910.152 455.067 917.81 465.681L963.983 529.733L963.639 451.761C963.648 445.889 963.577 436.544 968.371 432.355C970.56 430.443 974.312 429.767 977.133 430.125C980.823 430.594 983.594 432.551 985.723 435.517C987.044 437.359 987.267 439.689 987.394 441.88C988.96 468.961 987.575 496.924 987.558 524.087C987.552 535.36 989.145 558.914 987.071 569.138C986.224 573.314 982.622 575.636 979.412 577.97C977.603 578.048 975.761 578.112 973.972 577.778C971.871 577.387 970.115 576.685 968.531 575.201C959.553 566.795 952.076 553.796 944.83 543.742L896.984 477C897.296 496.2 897.19 515.424 897.218 534.627C897.233 544.971 898.077 556.173 896.787 566.398C896.318 570.116 895.169 573.232 892.076 575.537C889.524 577.44 886.45 578.412 883.266 577.835Q882.706 577.736 882.16 577.581Q881.613 577.426 881.084 577.216Q880.556 577.006 880.052 576.744Q879.548 576.481 879.073 576.169Q878.598 575.857 878.157 575.498Q877.716 575.139 877.314 574.737Q876.912 574.336 876.553 573.895Q876.194 573.455 875.881 572.98C873.782 569.844 873.446 565.693 873.213 562.027C871.716 538.452 873.418 513.859 873.438 490.186C873.451 474.607 870.85 454.288 873.785 439.375C874.736 434.544 876.622 432.348 880.649 429.679Z"/>
	<path fill="purple" d="M1369.65 428.22C1373.15 427.961 1376.49 427.852 1379.62 429.769C1384.16 432.556 1423.78 487.307 1424.85 491.893C1434.29 485.008 1455.98 447.697 1467.1 435.585C1470.58 431.796 1475.97 427.484 1481.37 427.37C1483.38 427.327 1485.18 427.801 1486.6 429.356C1489.62 432.657 1490.16 438.48 1490.54 442.74C1492.33 462.721 1490.59 484.183 1490.6 504.316C1490.61 522.839 1492.26 544.907 1490.68 563.073C1490.27 567.746 1489.17 573.842 1485.11 576.829C1483.01 578.38 1480.47 578.585 1477.98 578.057C1475.32 577.494 1471.24 575.895 1469.68 573.588C1461.17 560.955 1472.23 522.347 1465.18 511.235C1465.62 510.546 1465.99 509.846 1466.3 509.089C1468.48 503.706 1467.58 481.579 1465.2 476.283C1465.15 478.382 1464.28 479.694 1463.17 481.389C1456.61 491.314 1437.91 521.693 1426.27 523.553C1412.57 525.741 1395.82 484.192 1383.63 476.469C1383.4 476.329 1383.18 476.197 1382.96 476.061C1383.03 476.199 1383.11 476.333 1383.18 476.473C1383.3 476.705 1383.4 476.945 1383.52 477.178C1386.09 482.405 1386.13 563.169 1384.15 569.922C1383.3 572.831 1380.67 575.18 1378.14 576.663C1375.76 578.057 1372.58 579.138 1369.85 578.254C1367.35 577.445 1365.5 575.399 1364.24 573.176C1362.13 569.452 1361.4 565.025 1361.11 560.809C1359.97 544.555 1361.33 527.621 1361.3 511.287C1361.26 489.364 1360.1 466.942 1360.84 445.102C1360.94 442.146 1361.28 439.018 1362.14 436.181C1363.41 431.976 1366 430.268 1369.65 428.22Z"/>
	<path fill="purple" d="M513.954 580.255C514.717 545.111 514.029 509.814 514.017 474.654C514.011 458.085 512.51 440.221 515.212 423.906C516.318 417.221 518.57 411.364 523.108 406.228C529.534 398.956 538.96 394.833 548.587 394.324C554.246 394.025 559.794 395.065 564.831 397.697C581.183 406.237 626.032 449.991 642.711 465.056C627.253 478.86 611.02 492.336 596.193 506.78C588.844 512.763 581.901 519.279 574.95 525.718Q544.2 552.705 513.954 580.255ZM574.785 487.633C574.775 500.27 574.312 513.105 574.95 525.718C581.901 519.279 588.844 512.763 596.193 506.78L574.785 487.633Z"/>
	<path fill="purple" d="M771.937 424.852C770.971 461.843 771.78 499.031 771.807 536.044C771.819 553.024 773.595 571.796 770.467 588.425C769.002 596.214 765.704 603.358 759.9 608.871Q759.238 609.492 758.547 610.08Q757.855 610.667 757.135 611.22Q756.416 611.773 755.67 612.289Q754.923 612.806 754.153 613.285Q753.382 613.764 752.589 614.204Q751.795 614.645 750.981 615.045Q750.166 615.446 749.333 615.806Q748.5 616.166 747.651 616.485Q746.801 616.803 745.936 617.079Q745.072 617.355 744.195 617.588Q743.318 617.821 742.43 618.011Q741.543 618.2 740.647 618.346Q739.751 618.491 738.849 618.592Q737.947 618.693 737.042 618.75Q736.136 618.806 735.228 618.818Q734.321 618.829 733.414 618.796C727.955 618.625 722.761 617.192 718.051 614.42C706.244 607.473 695.984 596.64 685.817 587.48L638.17 544.506Q661.434 523.575 684.976 502.958C692.964 495.156 701.737 487.932 709.986 480.384C730.752 462.036 751.736 443.821 771.937 424.852ZM709.986 480.384C701.737 487.932 692.964 495.156 684.976 502.958L710.083 525.71L709.986 480.384Z"/>
</svg>
